<?xml version="1.0" encoding="utf-8"?>
<!-- Generator: Adobe Illustrator 13.0.0, SVG Export Plug-In . SVG Version: 6.00 Build 14948)  -->
<!DOCTYPE svg PUBLIC "-//W3C//DTD SVG 1.1//EN" "http://www.w3.org/Graphics/SVG/1.1/DTD/svg11.dtd">
<svg version="1.1" id="Ebene_1" xmlns="http://www.w3.org/2000/svg" xmlns:xlink="http://www.w3.org/1999/xlink" x="0px" y="0px"
	 width="506.478px" height="166.128px" viewBox="32.888 331.774 506.478 166.128"
	 enable-background="new 32.888 331.774 506.478 166.128" xml:space="preserve">
<title>Zeichenfläche 1</title>
<g id="direkt_Kopie_2">
	<g id="direkt_Kopie_2-2">
		<path d="M399.941,455.083h-11.675v4.726h5.481l-0.121,7.421c-1.945-0.448-3.934-0.68-5.931-0.69
			c-10.185,0-16.061,7.203-16.061,17.103c0,8.923,5.295,14.251,12.487,14.251c4.459,0.195,8.513-2.572,9.954-6.797h0.109
			c-0.355,2.017-0.55,4.059-0.581,6.106h10.13v-4.725h-4.034L399.941,455.083z M393.364,481.229c0,6.973-2.532,11.226-7.674,11.226
			c-4.835,0-7.258-4.21-7.258-9.79c0-5.876,3.289-11.061,9.264-11.061c1.979-0.084,3.945,0.354,5.701,1.271L393.364,481.229z
			 M415.29,463.261c2.422,0,4.385-1.964,4.385-4.386s-1.963-4.385-4.385-4.385s-4.386,1.963-4.386,4.385
			S412.868,463.261,415.29,463.261c0.007,0,0.015,0,0.021,0H415.29z M418.513,467.229H407.55v4.726h4.55l-0.109,20.5h-3.914v4.725
			h14.395v-4.725h-4.035L418.513,467.229z M436.053,475.638l-0.109-0.121c0.274-2.757,0.392-5.528,0.351-8.299h-10.645v4.726h4.55
			l-0.11,20.5h-3.639v4.725h14.471v-4.725h-4.386l0.121-9.329c0.055-5.295,2.478-10.711,8.178-10.711
			c1-0.031,1.996,0.125,2.938,0.461l0.69-5.701c-1.176-0.359-2.399-0.533-3.629-0.515c-4.319,0.011-7.597,3.354-8.748,8.989H436.053
			z M465.17,466.539c-9.669,0-14.679,6.907-14.679,15.786c0,9.385,5.876,15.49,15.775,15.557c3.61-0.024,7.185-0.727,10.535-2.072
			l0.351-5.295c-2.978,1.517-6.272,2.306-9.614,2.303c-5.931,0-10.185-3.738-10.25-9.56h21.41v-0.921
			c0.032-9.23-4.506-15.798-13.484-15.798H465.17z M471.901,478.861H457.32c0.23-3.629,2.072-7.597,7.543-7.597
			c3.788-0.123,6.958,2.85,7.08,6.638c0.004,0.13,0.005,0.259,0.002,0.389L471.901,478.861z M499.702,480.823l10.711-8.868h2.993
			v-4.726h-14.011v4.726h4.265v0.12l-10.59,8.179l0.23-25.215h-11.687v4.726h5.24l-0.23,32.657h-3.629v4.726h13.704v-4.726h-3.629
			v-10.479l10.766,10.479h-3.509v4.726h14.395v-4.726h-3.398L499.702,480.823z M532.339,492.805c-2.993,0-4.199-1.381-4.199-6.852
			c0-4.494,0.055-9.22,0.109-13.999h8.573v-4.726h-8.573l0.23-8.299l-6.501,1.558l-0.12,6.741h-4.55v4.726h4.55
			c-0.055,5.186-0.176,12.848-0.176,16.707c0,6.742,2.478,9.22,8.771,9.22c2.275-0.015,4.521-0.527,6.577-1.502l0.23-4.725
			c-1.548,0.671-3.204,1.062-4.89,1.15H532.339z"/>
	</g>
</g>
<g id="Logo_Kopie_7_Bild">
	<path d="M179.295,423.215v-4.813h3.694v-20.829h-4.637v-4.856h10.842c0,2.292-0.23,5.997-0.23,5.997
		c1.655-5.295,5.24-6.578,9.417-6.578c0.83,0.005,1.656,0.097,2.467,0.274l-0.724,6.008c-0.718-0.171-1.455-0.252-2.193-0.241
		c-5.81,0-8.32,5.01-8.32,10.743v9.505h4.429v4.812L179.295,423.215z"/>
	<path d="M283.616,418.413v-14.724c0-7.465-3.289-11.675-12.552-11.675c-4.272-0.055-8.499,0.887-12.344,2.752v7.137h5.865v-3.979
		c1.836-0.685,3.774-1.056,5.734-1.097c5.394,0,6.84,2.642,6.84,6.392v0.997c-12.958,0-19.732,3.486-19.732,10.963
		c0,3.87,2.62,8.771,9.954,8.771c4.077,0.147,7.943-1.816,10.228-5.196c-0.167,1.492-0.258,2.992-0.274,4.494h10.107v-4.812
		L283.616,418.413z M277.203,411.023c-0.002,4.281-3.475,7.749-7.755,7.747c-0.104,0-0.209-0.003-0.313-0.007
		c-3.113,0-5.087-1.82-5.087-4.111c0-4.517,6.358-6.095,13.155-6.161V411.023z"/>
	<path d="M54.353,392.014c-4.714,0-8.573,2.346-9.987,5.152V381.49H32.888v4.812h4.922v35.3c3.692,1.564,7.666,2.355,11.675,2.324
		c13.155,0,17.113-8.979,17.113-18.066C66.609,397.978,62.334,392.014,54.353,392.014z M50.242,418.413
		c-2.022,0.054-4.029-0.358-5.865-1.206v-10.963c0.121-4.867,2.817-8.771,7.981-8.771c4.988,0,7.575,3.465,7.575,8.771
		c0.011,6.413-2.763,12.157-9.68,12.157L50.242,418.413z"/>
	<path d="M124.087,397.528h4.571v17.124c0,6.863,2.697,9.385,8.771,9.385c2.28,0.002,4.531-0.52,6.578-1.524l0.23-4.812
		c-1.541,0.698-3.2,1.097-4.889,1.173c-3.048,0-4.067-1.414-4.067-6.983v-14.361h8.102v-4.812h-8.102v-6.204l-6.578,0.471v5.733
		h-4.571L124.087,397.528z"/>
	<path d="M102.677,397.528h4.571v17.124c0,6.863,2.697,9.385,8.771,9.385c2.28,0.002,4.531-0.52,6.578-1.524l0.186-4.856
		c-1.541,0.698-3.2,1.096-4.889,1.173c-3.048,0-4.067-1.414-4.067-6.983v-14.317h8.102v-4.812h-8.102v-6.204l-6.578,0.471v5.733
		h-4.571V397.528z"/>
	<path d="M348.22,408.14c0-9.438-4.637-16.346-13.78-16.346c-9.866,0-14.964,7.258-14.964,16.291c0,9.56,5.985,15.995,16.071,16.05
		c3.679-0.027,7.319-0.744,10.732-2.116l0.351-5.394c-3.035,1.545-6.394,2.35-9.801,2.346c-6.04,0-10.381-4.023-10.437-9.954h21.816
		L348.22,408.14z M341.303,404.566h-14.898c0.229-3.694,2.115-7.959,7.674-7.959c5.558,0,7.213,4.846,7.213,7.367L341.303,404.566z"
		/>
	<path d="M223.497,392.014c-4.02-0.135-7.781,1.979-9.757,5.481v-4.78h-10.426v4.812h4.287v35.607h-3.398v4.812h14.723v-4.812
		h-4.867v-10.129c1.869,0.639,3.835,0.946,5.81,0.909c10.437,0,16.291-7.334,16.291-17.42
		C236.159,397.737,230.897,392.014,223.497,392.014z M219.923,418.753c-2.035,0.092-4.058-0.354-5.865-1.294v-8.496
		c0-7.093,2.576-11.435,7.915-11.435c4.922,0,7.521,4.287,7.521,9.977C229.494,413.479,225.963,418.753,219.923,418.753z"/>
	<path d="M310.157,401.782h5.481v-8.244c-2.751-1.125-5.713-1.645-8.683-1.523c-10.678,0-16.444,6.808-16.444,16.126
		c0,7.674,4.166,15.775,16.367,15.775c2.852-0.006,5.677-0.541,8.332-1.578l0.351-5.69c-2.438,1.159-5.104,1.762-7.805,1.766
		c-8.091,0-10.678-5.635-10.678-10.963c0-5.811,3.114-10.327,9.154-10.327c1.309-0.006,2.611,0.171,3.87,0.526L310.157,401.782z"/>
	<path d="M174.592,408.14c0-9.438-4.637-16.346-13.78-16.346c-9.866,0-14.953,7.258-14.953,16.291c0,9.56,5.986,15.995,16.071,16.05
		c3.677-0.02,7.318-0.73,10.732-2.095l0.351-5.394c-3.036,1.546-6.395,2.35-9.801,2.347c-6.041,0-10.382-4.023-10.437-9.954h21.816
		V408.14z M167.675,404.566h-14.898c0.23-3.694,2.116-7.959,7.674-7.959s7.213,4.846,7.213,7.367L167.675,404.566z"/>
	<polygon points="239.612,423.215 253.984,423.215 253.984,418.401 249.884,418.401 249.884,381.49 237.968,381.49 237.968,386.302 
		243.307,386.302 243.307,418.401 239.612,418.401 	"/>
	<path d="M99.761,408.14c0-9.438-4.637-16.346-13.78-16.346c-9.866,0-14.953,7.258-14.953,16.291c0,9.56,5.986,15.995,16.071,16.05
		c3.673-0.021,7.311-0.731,10.722-2.095l0.351-5.394c-3.035,1.546-6.394,2.35-9.8,2.347c-6.041,0-10.382-4.023-10.437-9.954h21.827
		V408.14z M92.843,404.566H77.934c0.23-3.694,2.116-7.959,7.674-7.959s7.213,4.846,7.213,7.367L92.843,404.566z"/>
	<path d="M406.146,423.137h13.726v-2.62h-5.712l0.121-10.535c0.12-8.639,4.823-15.348,10.185-15.348
		c1.291-0.015,2.57,0.251,3.749,0.778l0.428-2.971c-1.392-0.42-2.834-0.642-4.287-0.658c-5.536,0-8.77,4.571-10.239,9.066
		c0,0,0.362-5.481,0.362-8.354h-8.989v2.62h5.777l-0.241,25.367h-4.879V423.137z"/>
	<circle cx="361.474" cy="419.279" r="3.804"/>
	<polygon points="500.854,374.857 526.77,405.126 500.623,381.074 509.218,402.703 495.328,379.516 472.932,398.998 
		492.653,376.151 460.676,379.1 489.376,373.422 464.655,341.75 493.783,370.143 485.243,342.802 497.039,370.319 523.306,346.99 
		502.06,371.404 533.885,362.755 	"/>
	<path d="M498.069,375.537c0,8.858,0,39.356,0,39.356s-26.432-37.383-4.243-41.396h-40.047c0,0,35.465-27.56,41.297-2.367
		c0-8.858,0-39.356,0-39.356s26.388,37.273,4.309,41.384h39.981C539.366,373.158,503.901,400.729,498.069,375.537z"/>
	<g>
		<path d="M499.33,372.161l24.238-11.226c0,0-29.753,54.123-29.753,13.78l-24.238,11.226
			C469.577,385.941,499.33,331.818,499.33,372.161z"/>
		<polygon points="500.854,374.857 526.77,405.126 500.623,381.074 509.218,402.703 495.328,379.516 472.932,398.998 
			492.653,376.151 460.676,379.1 489.376,373.422 464.655,341.75 493.783,370.143 485.243,342.802 497.039,370.319 523.306,346.99 
			502.06,371.404 533.885,362.755 		"/>
		<path d="M498.069,375.537c0,8.858,0,39.356,0,39.356s-26.432-37.383-4.243-41.396h-40.047c0,0,35.465-27.56,41.297-2.367
			c0-8.858,0-39.356,0-39.356s26.388,37.273,4.309,41.384h39.981C539.366,373.158,503.901,400.729,498.069,375.537z"/>
	</g>
	<path d="M386.14,394.492c7.302,0,11.095,5.558,11.095,13.353s-3.805,13.353-11.095,13.353s-11.094-5.547-11.094-13.407
		S378.85,394.492,386.14,394.492z M386.14,423.664c9.264,0,14.032-7.137,14.032-15.819s-4.769-15.819-14.032-15.819
		s-14.032,7.137-14.032,15.819S376.876,423.664,386.14,423.664z"/>
	<path d="M450.381,424.048l-8.693-1.315c-2.675,0.472-8.211,2.324-8.211,6.665c0,2.916,3.815,6.019,11.139,6.019
		c5.481,0,11.368-1.842,11.368-6.665C455.983,425.594,453.779,424.815,450.381,424.048z M434.485,402.308
		c0,4.385,2.916,8.639,9.11,8.639c5.415,0,8.77-3.453,8.77-8.573c0-4.647-3.288-8.452-9.109-8.452
		C438.301,393.922,434.485,397.134,434.485,402.308z M454.799,406.321c-1.619,4.491-5.961,7.418-10.732,7.235
		c-4.943,0-7.268,1.721-7.268,3.398c0,1.677,1.842,2.324,4.999,2.861l9.866,1.786c3.749,0.658,7.389,1.787,7.389,6.907
		c0,4.231-3.453,9.526-14.646,9.526c-7.915,0-14.054-2.74-14.054-8.276c0-3.87,3.87-7.148,8.156-7.795
		c-2.028-0.472-4.823-1.611-4.823-4.583c0-2.971,3.036-4.286,5.48-4.702c-2.86-0.778-7.794-3.092-7.794-10.119
		c0-6.369,4.582-11.489,11.851-11.489h13.923v2.555h-6.019c2.719,2.157,4.282,5.454,4.231,8.924
		c0.021,1.278-0.164,2.552-0.548,3.771H454.799z"/>
</g>
</svg>
