<?xml version="1.0" encoding="utf-8"?>
<!-- Generator: Adobe Illustrator 21.0.0, SVG Export Plug-In . SVG Version: 6.00 Build 0)  -->
<svg version="1.1" id="Ebene_1" xmlns="http://www.w3.org/2000/svg" xmlns:xlink="http://www.w3.org/1999/xlink" x="0px" y="0px"
	 width="462px" height="151.5px" viewBox="0 0 462 151.5" style="enable-background:new 0 0 462 151.5;" xml:space="preserve">
<style type="text/css">
	.st0{fill:#8DAD24;}
	.st1{fill:#61696E;}
	.st2{fill:#8E969E;}
	.st3{fill:#BED139;}
	.st4{clip-path:url(#SVGID_2_);}
	.st5{fill:#A1B960;}
	.st6{fill:#849D55;}
</style>
<title>Zeichenfläche 1</title>
<g id="direkt_Kopie_2">
	<g id="direkt_Kopie_2-2">
		<path class="st0" d="M334.8,112.5h-10.6v4.3h5l-0.1,6.8c-1.8-0.4-3.6-0.6-5.4-0.6c-9.3,0-14.6,6.6-14.6,15.6c0,8.1,4.8,13,11.4,13
			c4.1,0.2,7.8-2.3,9.1-6.2h0.1c-0.3,1.8-0.5,3.7-0.5,5.6h9.2v-4.3h-3.7L334.8,112.5z M328.8,136.3c0,6.4-2.3,10.2-7,10.2
			c-4.4,0-6.6-3.8-6.6-8.9c0-5.4,3-10.1,8.5-10.1c1.8-0.1,3.6,0.3,5.2,1.2L328.8,136.3z M348.8,119.9c2.2,0,4-1.8,4-4s-1.8-4-4-4
			s-4,1.8-4,4C344.8,118.1,346.6,119.9,348.8,119.9C348.8,119.9,348.8,119.9,348.8,119.9L348.8,119.9z M351.8,123.6h-10v4.3h4.1
			l-0.1,18.7h-3.6v4.3h13.1v-4.3h-3.7L351.8,123.6z M367.8,131.2l-0.1-0.1c0.3-2.5,0.4-5,0.3-7.6h-9.7v4.3h4.1l-0.1,18.7H359v4.3
			h13.2v-4.3h-4l0.1-8.5c0-4.8,2.3-9.8,7.5-9.8c0.9,0,1.8,0.1,2.7,0.4l0.6-5.2c-1.1-0.3-2.2-0.5-3.3-0.5
			C371.8,123,368.8,126.1,367.8,131.2L367.8,131.2z M394.3,122.9c-8.8,0-13.4,6.3-13.4,14.4c0,8.6,5.4,14.1,14.4,14.2
			c3.3,0,6.6-0.7,9.6-1.9l0.3-4.8c-2.7,1.4-5.7,2.1-8.8,2.1c-5.4,0-9.3-3.4-9.4-8.7h19.5v-0.8C406.7,128.9,402.5,122.9,394.3,122.9
			L394.3,122.9z M400.5,134.2h-13.3c0.2-3.3,1.9-6.9,6.9-6.9c3.5-0.1,6.3,2.6,6.5,6.1c0,0.1,0,0.2,0,0.4L400.5,134.2z M425.8,136
			l9.8-8.1h2.7v-4.3h-12.8v4.3h3.9v0.1l-9.7,7.5l0.2-23h-10.7v4.3h4.8l-0.2,29.8h-3.3v4.3h12.5v-4.3h-3.3V137l9.8,9.6h-3.2v4.3h13.1
			v-4.3h-3.1L425.8,136z M455.6,146.9c-2.7,0-3.8-1.3-3.8-6.2c0-4.1,0-8.4,0.1-12.8h7.8v-4.3h-7.8l0.2-7.6l-5.9,1.4l-0.1,6.1h-4.1
			v4.3h4.1c0,4.7-0.2,11.7-0.2,15.2c0,6.1,2.3,8.4,8,8.4c2.1,0,4.1-0.5,6-1.4l0.2-4.3C458.7,146.5,457.2,146.8,455.6,146.9
			L455.6,146.9z"/>
	</g>
</g>
<g id="Logo_Kopie_7_Bild">
	<path class="st1" d="M133.6,83.4V79h3.4V60h-4.2v-4.4h9.9c0,2.1-0.2,5.5-0.2,5.5c1.5-4.8,4.8-6,8.6-6c0.8,0,1.5,0.1,2.2,0.2
		l-0.7,5.5c-0.7-0.2-1.3-0.2-2-0.2c-5.3,0-7.6,4.6-7.6,9.8V79h4v4.4L133.6,83.4z"/>
	<path class="st1" d="M228.7,79V65.6c0-6.8-3-10.7-11.4-10.7c-3.9-0.1-7.8,0.8-11.3,2.5V64h5.4v-3.6c1.7-0.6,3.4-1,5.2-1
		c4.9,0,6.2,2.4,6.2,5.8v0.9c-11.8,0-18,3.2-18,10c0,3.5,2.4,8,9.1,8c3.7,0.1,7.2-1.7,9.3-4.7c-0.2,1.4-0.2,2.7-0.2,4.1h9.2v-4.4
		L228.7,79z M222.9,72.3c0,3.9-3.2,7.1-7.1,7.1c-0.1,0-0.2,0-0.3,0c-2.8,0-4.6-1.7-4.6-3.8c0-4.1,5.8-5.6,12-5.6V72.3z"/>
	<path class="st1" d="M19.6,54.9c-4.3,0-7.8,2.1-9.1,4.7V45.3H0v4.4h4.5v32.2c3.4,1.4,7,2.1,10.7,2.1c12,0,15.6-8.2,15.6-16.5
		C30.8,60.4,26.9,54.9,19.6,54.9z M15.8,79c-1.8,0-3.7-0.3-5.3-1.1v-10c0.1-4.4,2.6-8,7.3-8c4.5,0,6.9,3.2,6.9,8
		C24.7,73.8,22.2,79,15.8,79L15.8,79z"/>
	<path class="st1" d="M83.2,60h4.2v15.6c0,6.3,2.5,8.6,8,8.6c2.1,0,4.1-0.5,6-1.4l0.2-4.4c-1.4,0.6-2.9,1-4.5,1.1
		c-2.8,0-3.7-1.3-3.7-6.4V60h7.4v-4.4h-7.4v-5.7l-6,0.4v5.2h-4.2L83.2,60z"/>
	<path class="st1" d="M63.7,60h4.2v15.6c0,6.3,2.5,8.6,8,8.6c2.1,0,4.1-0.5,6-1.4l0.2-4.4c-1.4,0.6-2.9,1-4.5,1.1
		c-2.8,0-3.7-1.3-3.7-6.4V60h7.4v-4.4h-7.4v-5.7l-6,0.4v5.2h-4.2V60z"/>
	<path class="st1" d="M287.6,69.7c0-8.6-4.2-14.9-12.6-14.9c-9,0-13.6,6.6-13.6,14.9c0,8.7,5.5,14.6,14.7,14.6
		c3.4,0,6.7-0.7,9.8-1.9l0.3-4.9c-2.8,1.4-5.8,2.1-8.9,2.1c-5.5,0-9.5-3.7-9.5-9.1h19.9L287.6,69.7z M281.3,66.4h-13.6
		c0.2-3.4,1.9-7.3,7-7.3s6.6,4.4,6.6,6.7L281.3,66.4z"/>
	<path class="st1" d="M173.9,54.9c-3.7-0.1-7.1,1.8-8.9,5v-4.4h-9.5V60h3.9v32.5h-3.1v4.4h13.4v-4.4h-4.4v-9.2
		c1.7,0.6,3.5,0.9,5.3,0.8c9.5,0,14.9-6.7,14.9-15.9C185.4,60.2,180.6,54.9,173.9,54.9z M170.6,79.3c-1.9,0.1-3.7-0.3-5.4-1.2v-7.8
		c0-6.5,2.4-10.4,7.2-10.4c4.5,0,6.9,3.9,6.9,9.1C179.3,74.5,176.1,79.3,170.6,79.3z"/>
	<path class="st1" d="M252.9,63.9h5v-7.5c-2.5-1-5.2-1.5-7.9-1.4c-9.7,0-15,6.2-15,14.7c0,7,3.8,14.4,14.9,14.4
		c2.6,0,5.2-0.5,7.6-1.4l0.3-5.2c-2.2,1.1-4.7,1.6-7.1,1.6c-7.4,0-9.7-5.1-9.7-10c0-5.3,2.8-9.4,8.4-9.4c1.2,0,2.4,0.2,3.5,0.5
		L252.9,63.9z"/>
	<path class="st1" d="M129.3,69.7c0-8.6-4.2-14.9-12.6-14.9c-9,0-13.6,6.6-13.6,14.9c0,8.7,5.5,14.6,14.7,14.6
		c3.4,0,6.7-0.7,9.8-1.9l0.3-4.9c-2.8,1.4-5.8,2.1-8.9,2.1c-5.5,0-9.5-3.7-9.5-9.1h19.9V69.7z M122.9,66.4h-13.6
		c0.2-3.4,1.9-7.3,7-7.3s6.6,4.4,6.6,6.7L122.9,66.4z"/>
	<polygon class="st1" points="188.6,83.4 201.7,83.4 201.7,79 197.9,79 197.9,45.3 187.1,45.3 187.1,49.7 191.9,49.7 191.9,79 
		188.6,79 	"/>
	<path class="st1" d="M61,69.7c0-8.6-4.2-14.9-12.6-14.9c-9,0-13.6,6.6-13.6,14.9c0,8.7,5.5,14.6,14.7,14.6c3.4,0,6.7-0.7,9.8-1.9
		l0.3-4.9c-2.8,1.4-5.8,2.1-8.9,2.1c-5.5,0-9.5-3.7-9.5-9.1H61V69.7z M54.7,66.4H41.1c0.2-3.4,1.9-7.3,7-7.3s6.6,4.4,6.6,6.7
		L54.7,66.4z"/>
	<path class="st1" d="M340.5,83.3H353v-2.4h-5.2l0.1-9.6c0.1-7.9,4.4-14,9.3-14c1.2,0,2.3,0.2,3.4,0.7l0.4-2.7
		c-1.3-0.4-2.6-0.6-3.9-0.6c-5,0-8,4.2-9.3,8.3c0,0,0.3-5,0.3-7.6h-8.2v2.4h5.3l-0.2,23.1h-4.5L340.5,83.3z"/>
	<circle class="st1" cx="299.7" cy="79.8" r="3.5"/>
	<polygon class="st2" points="426.9,39.3 450.5,66.9 426.7,45 434.5,64.7 421.8,43.5 401.4,61.3 419.4,40.5 390.2,43.2 416.4,38 
		393.9,9.1 420.4,35 412.6,10.1 423.4,35.2 447.4,13.9 428,36.1 457,28.3 	"/>
	<path class="st3" d="M424.3,39.9c0,8.1,0,35.9,0,35.9s-24.1-34.1-3.9-37.8h-36.5c0,0,32.4-25.1,37.7-2.2c0-8.1,0-35.9,0-35.9
		s24.1,34,3.9,37.8H462C462,37.8,429.6,62.9,424.3,39.9z"/>
	<g>
		<defs>
			<path id="SVGID_1_" d="M425.5,36.8l22.1-10.2c0,0-27.1,49.4-27.1,12.6l-22.1,10.2C398.3,49.4,425.5,0,425.5,36.8z"/>
		</defs>
		<clipPath id="SVGID_2_">
			<use xlink:href="#SVGID_1_"  style="overflow:visible;"/>
		</clipPath>
		<g class="st4">
			<path class="st5" d="M425.5,36.8l22.1-10.2c0,0-27.1,49.4-27.1,12.6l-22.1,10.2C398.3,49.4,425.5,0,425.5,36.8z"/>
			<polygon class="st6" points="426.9,39.3 450.5,66.9 426.7,45 434.5,64.7 421.8,43.5 401.4,61.3 419.4,40.5 390.2,43.2 416.4,38 
				393.9,9.1 420.4,35 412.6,10.1 423.4,35.2 447.4,13.9 428,36.1 457,28.3 			"/>
			<path class="st0" d="M424.3,39.9c0,8.1,0,35.9,0,35.9s-24.1-34.1-3.9-37.8h-36.5c0,0,32.4-25.1,37.7-2.2c0-8.1,0-35.9,0-35.9
				s24.1,34,3.9,37.8H462C462,37.8,429.6,62.9,424.3,39.9z"/>
		</g>
	</g>
	<path class="st1" d="M322.2,57.2c6.7,0,10.1,5.1,10.1,12.2s-3.5,12.2-10.1,12.2s-10.1-5.1-10.1-12.2S315.6,57.2,322.2,57.2z
		 M322.2,83.8c8.5,0,12.8-6.5,12.8-14.4S330.7,55,322.2,55s-12.8,6.5-12.8,14.4S313.8,83.8,322.2,83.8z"/>
	<path class="st1" d="M380.8,84.2l-7.9-1.2c-2.4,0.4-7.5,2.1-7.5,6.1c0,2.7,3.5,5.5,10.2,5.5c5,0,10.4-1.7,10.4-6.1
		C385.9,85.6,383.9,84.9,380.8,84.2z M366.3,64.3c0,4,2.7,7.9,8.3,7.9c4.9,0,8-3.2,8-7.8c0-4.2-3-7.7-8.3-7.7
		C369.8,56.7,366.3,59.6,366.3,64.3z M384.9,68c-1.5,4.1-5.4,6.8-9.8,6.6c-4.5,0-6.6,1.6-6.6,3.1s1.7,2.1,4.6,2.6l9,1.6
		c3.4,0.6,6.7,1.6,6.7,6.3c0,3.9-3.1,8.7-13.4,8.7c-7.2,0-12.8-2.5-12.8-7.6c0-3.5,3.5-6.5,7.4-7.1c-1.9-0.4-4.4-1.5-4.4-4.2
		s2.8-3.9,5-4.3c-2.6-0.7-7.1-2.8-7.1-9.2c0-5.8,4.2-10.5,10.8-10.5H387v2.3h-5.5c2.5,2,3.9,5,3.9,8.1
		C385.4,65.7,385.2,66.9,384.9,68L384.9,68z"/>
</g>
</svg>
